Coordinates
version=1
nRows=13
nColumns=34
inDegrees=yes

Units are S.I. units (second, meters, Newtons, ...)
If the header above contains a line with 'inDegrees', this indicates whether rotational values are in degrees (yes) or radians (no).

endheader
time	pelvis_tilt	pelvis_list	pelvis_rotation	pelvis_tx	pelvis_ty	pelvis_tz	hip_flexion_r	hip_adduction_r	hip_rotation_r	knee_angle_r	ankle_angle_r	subtalar_angle_r	mtp_angle_r	hip_flexion_l	hip_adduction_l	hip_rotation_l	knee_angle_l	ankle_angle_l	subtalar_angle_l	mtp_angle_l	lumbar_extension	lumbar_bending	lumbar_rotation	arm_flex_r	arm_add_r	arm_rot_r	elbow_flex_r	pro_sup_r	arm_flex_l	arm_add_l	arm_rot_l	elbow_flex_l	pro_sup_l
      8.36666670	      7.07236805	     -0.10856787	     -7.51201699	      0.77904911	      0.95198012	     -0.36698795	     11.74713557	      3.77446911	    -23.50218833	     19.88953120	    -16.99796278	    -35.00000000	      0.00000000	     20.78713214	     -7.77569759	     -4.72930843	     12.81603290	     24.75176188	     -6.56269677	      0.00000000	    -29.77921801	      4.17707619	      0.35475643	     41.97017325	      9.66937683	     78.73080200	    119.95044853	     89.31063561	     28.33148104	     10.79733790	     68.19100518	    118.85833272	     92.37248318
      8.38333330	      6.73216876	     -0.53287548	     -7.86663965	      0.77879360	      0.94991008	     -0.36703952	     12.49389705	      3.95343621	    -24.44793189	     20.71000879	    -14.88534765	    -35.00000000	      0.00000000	     21.34886452	     -8.72827781	     -5.74146516	     12.58042970	     22.63467923	     -7.32492991	      0.00000000	    -29.64138354	      4.69697324	      0.94363554	     41.60759997	      9.00524469	     78.75301991	    120.04693566	     89.59367063	     28.10062925	     11.00292753	     67.94551532	    118.33153422	     92.46427464
      8.40000000	      6.01505899	     -0.85204547	     -8.24715420	      0.77256783	      0.94381043	     -0.36658283	     14.43603506	      4.22866390	    -23.92124617	     22.82391477	    -11.58084085	    -35.00000000	      0.00000000	     22.86978394	     -9.62404176	     -5.59102754	     12.79544900	     23.30968231	     -9.02481476	      0.00000000	    -29.46258014	      5.26569800	      1.24015131	     41.80671832	      8.81434050	     78.77302123	    120.15889597	     89.89106555	     28.38147497	     10.95775370	     67.78344723	    118.34506487	     92.54000761
      8.41666670	      5.67862869	     -1.49577447	     -8.68567582	      0.77665887	      0.94609458	     -0.36772885	     15.11626419	      4.75330768	    -25.37914879	     23.56761451	    -10.58893715	    -35.00000000	      0.00000000	     23.08068373	    -10.59046081	     -6.37490144	     11.95895201	     22.62211608	     -9.41071734	      0.00000000	    -29.57548336	      6.26403465	      1.64334670	     41.73219109	      8.81312095	     79.12123786	    120.11769016	     90.02036330	     28.07766533	     11.07495023	     67.51928535	    117.84018946	     92.55644032
      8.43333330	      4.56275201	     -1.95564099	     -8.85419484	      0.76985974	      0.93771084	     -0.36619837	     17.53773731	      5.30194172	    -25.13457367	     25.76291356	     -6.06287882	    -35.00000000	      0.00000000	     24.96065599	    -11.65204503	     -6.46601439	     11.85552393	     20.98478642	    -10.20420759	      0.00000000	    -29.17553537	      7.08879039	      1.95409697	     41.82027909	      8.66214663	     79.66590792	    120.34836084	     90.36008803	     28.42109394	     11.09668910	     67.59604609	    117.65645953	     92.65578800
      8.45000000	      4.65680354	     -2.06872864	     -9.22863090	      0.77366689	      0.94197314	     -0.36964572	     18.12628495	      5.03396869	    -25.55776657	     27.37677254	     -5.85451466	    -35.00000000	      0.00000000	     24.96791923	    -11.91018922	     -6.37501078	     12.15902348	     20.28127523	    -10.25353698	      0.00000000	    -29.89215547	      7.52265789	      2.07101980	     42.08192768	      8.48883488	     79.72988403	    120.20766825	     90.43171986	     28.51247737	     11.16538371	     67.34793417	    117.45045444	     92.66721054
      8.46666670	      4.16410763	     -2.00707998	     -9.33614811	      0.77128511	      0.93241789	     -0.36859853	     19.43705172	      4.78526277	    -25.02328902	     28.82956681	     -3.32695780	    -35.00000000	      0.00000000	     25.72852215	    -12.02459773	     -6.18661910	     12.33282291	     21.70075388	    -11.33082316	      0.00000000	    -29.60826534	      7.74285283	      1.83231010	     42.22445157	      8.37297509	     80.05793429	    120.35950502	     90.62646885	     28.53559310	     11.18009558	     67.14799265	    117.41849320	     92.72302489
      8.48333330	      4.04108539	     -2.18427399	     -9.72550214	      0.76636922	      0.93336934	     -0.36860714	     20.48349556	      4.76787739	    -25.02015321	     30.70521241	     -2.76301448	    -35.00000000	      0.00000000	     26.21221353	    -12.53384261	     -5.96034617	     12.24388498	     21.70514587	    -11.06117958	      0.00000000	    -30.17472393	      8.05167485	      2.14611305	     42.87094332	      8.23634118	     80.18987064	    120.33746990	     90.70217363	     29.06051418	     11.39814831	     66.93958593	    117.22824743	     92.75008760
      8.50000000	      4.11504187	     -2.12106561	     -9.61160475	      0.77337201	      0.92840832	     -0.37025208	     20.73535145	      4.30345222	    -24.55373983	     31.59311582	     -2.50891532	    -35.00000000	      0.00000000	     26.21609344	    -12.38109080	     -5.48263945	     12.26735931	     22.07651751	    -10.79243507	      0.00000000	    -30.54486987	      8.52975272	      1.92239268	     42.66213803	      7.95834439	     80.35556522	    120.35190972	     90.72922491	     28.82107783	     11.41725927	     67.10644787	    117.02465244	     92.76496970
      8.51666670	      2.76356002	     -1.64503588	     -9.76030897	      0.77026043	      0.92242542	     -0.37102003	     23.25702586	      3.62323487	    -24.17364881	     33.61875587	      1.07108001	    -35.00000000	      0.00000000	     28.41294860	    -12.38175179	     -5.22340503	     13.21221097	     25.51335632	     -8.81516291	      0.00000000	    -29.06031070	      8.26779549	      1.81969373	     42.49950107	      7.60793624	     80.85201940	    120.80609253	     91.06036719	     28.47241810	     11.75765161	     67.68334271	    116.63803246	     92.96036403
      8.53333330	      2.80744078	     -1.73920352	     -9.76717992	      0.76946754	      0.92101308	     -0.37034796	     23.52903245	      3.50891583	    -23.91092122	     34.21133171	      1.09978869	    -35.00000000	      0.00000000	     28.34246121	    -12.34976046	     -5.09910709	     13.31640778	     25.58101449	     -8.68173685	      0.00000000	    -29.37911021	      8.81026075	      1.68827252	     42.49338818	      7.34633419	     80.87526538	    120.81790343	     91.07803461	     28.58682866	     11.72596128	     67.62325011	    116.50088286	     92.96569086
      8.55000000	      2.73905108	     -1.72429758	     -9.98515553	      0.76825909	      0.91990388	     -0.37220542	     23.68606019	      3.41525998	    -23.91208775	     34.21663504	      1.15017639	    -35.00000000	      0.00000000	     28.36283082	    -12.39549299	     -5.07044479	     13.20809269	     25.64474229	     -8.63704501	      0.00000000	    -29.56786434	      9.00994944	      1.60954655	     42.52731846	      7.21836186	     80.87151174	    120.82622338	     91.08373560	     28.67118153	     11.76487588	     67.58373399	    116.45232666	     92.96632070
      8.56666670	      3.34459761	     -2.30834463	     -9.87840999	      0.76897030	      0.91882176	     -0.37376432	     22.91901988	      3.74698420	    -23.96130727	     34.06772105	      3.29655523	    -35.00000000	      0.00000000	     27.31947938	    -12.77951179	     -6.01367241	     12.43617317	     27.34471653	     -5.69620480	      0.00000000	    -30.61422307	      9.87674180	      1.93431366	     43.26540961	      6.74525565	     81.43738738	    121.49216629	     91.40941280	     29.23638821	     12.30496095	     67.47633705	    115.57911593	     93.14601828
